<?xml version="1.0" encoding="utf-8"?>
<svg width="60.001px" height="30px" viewBox="0 0 60.001 30" version="1.1" xmlns:xlink="http://www.w3.org/1999/xlink" xmlns="http://www.w3.org/2000/svg">
  <g id="Zinabi">
    <g transform="translate(0, 7.25)" id="Zinabi">
      <path d="M31.755 24.592Q31.842 24.679 31.784 24.795Q28.478 29.087 23.78 29.087Q23.287 29.087 22.7505 29.029Q22.214 28.971 21.663 28.884Q20.3 28.652 18.937 28.159Q17.574 27.666 16.2255 27.028Q14.877 26.39 13.572 25.665Q12.267 24.94 11.02 24.244Q9.309 23.287 7.7285 22.446Q6.148 21.605 4.7705 21.141Q3.393 20.677 2.233 20.735Q1.073 20.793 0.232 21.605Q0.116 21.721 0.029 21.605Q-0.087 21.518 0.029 21.402Q1.798 19.517 4.089 17.719Q6.38 15.921 8.729 14.181Q10.991 12.47 13.1805 10.7445Q15.37 9.019 17.052 7.279Q18.618 5.626 19.4735 4.147Q20.329 2.668 20.561 1.218Q20.01 1.769 19.053 1.943Q18.096 2.117 16.907 2.0445Q15.718 1.972 14.4275 1.7255Q13.137 1.479 11.9335 1.218Q10.73 0.957001 9.744 0.754Q8.758 0.551003 8.178 0.551001Q7.076 0.434999 6.1045 0.754Q5.133 1.073 4.466 1.769Q3.799 2.465 3.5235 3.5235Q3.248 4.582 3.567 5.887Q3.567 6.061 3.509 6.061L3.48 6.061Q3.393 6.09 3.335 5.974Q2.987 4.408 3.0305 2.929Q3.074 1.45 3.915 0.260998Q4.582 -0.637999 5.626 -0.986002Q6.67 -1.334 7.975 -1.334Q8.7 -1.334 9.8165 -1.044Q10.933 -0.754002 12.209 -0.362501Q13.485 0.0290012 14.8045 0.434999Q16.124 0.841002 17.284 1.0585Q18.444 1.276 19.3285 1.218Q20.213 1.16 20.619 0.637999L20.619 0.115999Q20.619 -0.0579987 20.9235 -0.1595Q21.228 -0.261002 21.605 -0.275501Q21.982 -0.289999 22.301 -0.203001Q22.62 -0.115999 22.649 0.115999Q22.707 0.898998 22.4605 1.9285Q22.214 2.958 21.721 3.944Q21.257 4.814 20.6045 5.713Q19.952 6.612 19.024 7.569Q17.342 9.338 15.1525 11.078Q12.963 12.818 10.701 14.529Q8.787 16.008 6.9165 17.4725Q5.046 18.937 3.451 20.445Q5.191 20.474 6.728 20.851Q8.265 21.228 9.6715 21.7935Q11.078 22.359 12.383 23.084Q13.688 23.809 14.964 24.534Q17.487 26.013 19.7345 27.086Q21.982 28.159 24.0265 28.3765Q26.071 28.594 27.9415 27.753Q29.812 26.912 31.552 24.621Q31.581 24.534 31.755 24.592ZM22.098 21.721C21.634 21.7403 21.286 21.4987 21.054 20.996Q20.706 20.242 20.6045 19.082Q20.503 17.922 20.6045 16.5445Q20.706 15.167 20.938 13.949Q21.17 12.731 21.46 11.832Q21.75 10.933 22.011 10.759Q22.272 10.585 22.678 10.585Q23.084 10.585 23.4465 10.672Q23.809 10.759 24.0265 10.9185Q24.244 11.078 24.157 11.194Q23.983 11.426 23.7655 11.9915Q23.548 12.557 23.3305 13.34Q23.113 14.123 22.9245 15.022Q22.736 15.921 22.62 16.762Q22.301 18.937 22.417 19.865Q22.533 20.793 22.881 20.735Q23.084 20.706 23.403 20.2855Q23.722 19.865 24.099 19.198Q24.476 18.531 24.8965 17.661Q25.317 16.791 25.752 15.863Q25.81 15.718 25.955 15.805Q26.1 15.892 26.042 15.979Q25.636 16.936 25.114 17.9655Q24.592 18.995 24.07 19.836Q23.577 20.648 23.084 21.1845Q22.591 21.721 22.098 21.721ZM22.446 8.294Q22.446 7.859 22.7215 7.5545Q22.997 7.25 23.432 7.25Q23.867 7.25 24.157 7.5545Q24.447 7.859 24.447 8.294Q24.447 8.729 24.157 9.0045Q23.867 9.28 23.432 9.28Q22.997 9.28 22.7215 9.0045Q22.446 8.729 22.446 8.294ZM35.38 15.718Q35.583 15.834 35.467 15.95Q35.206 16.501 34.7565 17.4725Q34.307 18.444 33.756 19.401Q33.205 20.358 32.625 21.0395Q32.045 21.721 31.581 21.721Q30.566 21.692 30.45 20.039Q30.334 18.386 31.001 14.761Q31.32 12.76 31.4505 11.9045Q31.581 11.049 31.291 11.049Q31.001 11.02 30.4935 11.745Q29.986 12.47 29.464 13.572Q29.116 14.239 28.8405 15.0075Q28.565 15.776 28.246 16.559Q28.043 17.052 27.898 17.777Q27.753 18.502 27.608 19.2415Q27.463 19.981 27.289 20.619Q27.115 21.257 26.883 21.547Q26.651 21.866 26.303 21.895Q25.955 21.924 25.636 21.808Q25.317 21.692 25.1285 21.5325Q24.94 21.373 24.998 21.286Q25.172 21.083 25.288 20.271Q25.404 19.459 25.52 18.3425Q25.636 17.226 25.752 15.95Q25.868 14.674 25.984 13.5865Q26.1 12.499 26.274 11.716Q26.448 10.933 26.651 10.788Q26.912 10.585 27.318 10.5705Q27.724 10.556 28.101 10.6575Q28.478 10.759 28.6955 10.9185Q28.913 11.078 28.826 11.194Q28.594 11.484 28.391 12.2525Q28.188 13.021 28.0285 14.007Q27.869 14.993 27.7095 16.0515Q27.55 17.11 27.405 17.922Q27.782 16.733 28.2605 15.4425Q28.739 14.152 29.29 13.0645Q29.841 11.977 30.421 11.2665Q31.001 10.556 31.581 10.556Q32.567 10.527 32.944 11.252Q33.321 11.977 33.3355 13.079Q33.35 14.181 33.118 15.486Q32.886 16.791 32.625 17.9075Q32.364 19.024 32.19 19.807Q32.016 20.59 32.19 20.648Q32.48 20.735 33.1905 19.5895Q33.901 18.444 35.177 15.805Q35.264 15.689 35.38 15.718ZM46.255 15.718Q46.429 15.834 46.342 15.95Q46.081 16.501 45.6315 17.458Q45.182 18.415 44.631 19.3575Q44.08 20.3 43.5145 20.9815Q42.949 21.663 42.485 21.663Q41.992 21.663 41.673 21.286Q41.354 20.909 41.18 20.2565Q41.006 19.604 40.948 18.7775Q40.89 17.951 40.948 17.023Q40.629 18.038 40.252 18.85Q39.875 19.662 39.469 20.242Q39.324 20.445 39.1065 20.6915Q38.889 20.938 38.6135 21.17Q38.338 21.402 38.0045 21.5615Q37.671 21.721 37.294 21.721Q36.424 21.721 35.931 21.17Q35.438 20.619 35.206 19.7925Q34.974 18.966 34.9595 17.9945Q34.945 17.023 35.061 16.182Q35.235 14.993 35.5685 13.9635Q35.902 12.934 36.4385 12.18Q36.975 11.426 37.7 11.0055Q38.425 10.585 39.382 10.585Q40.02 10.585 40.6435 10.875Q41.267 11.165 41.818 11.658Q42.05 10.904 42.282 10.759Q42.572 10.556 42.9925 10.5705Q43.413 10.585 43.761 10.701Q44.109 10.817 44.312 10.962Q44.515 11.107 44.428 11.194Q44.225 11.368 43.964 12.122Q43.703 12.876 43.4565 13.92Q43.21 14.964 43.007 16.124Q42.804 17.284 42.717 18.2845Q42.63 19.285 42.7025 19.981Q42.775 20.677 43.065 20.735Q43.384 20.793 44.08 19.662Q44.776 18.531 46.052 15.805Q46.11 15.66 46.255 15.718ZM37.903 20.967Q38.309 21.083 38.744 20.6625Q39.179 20.242 39.585 19.4735Q39.991 18.705 40.368 17.6755Q40.745 16.646 41.064 15.515Q41.18 14.5 41.3395 13.572Q41.499 12.644 41.702 11.977Q41.383 11.687 40.9335 11.3535Q40.484 11.02 40.136 11.02Q39.672 11.02 39.237 11.4405Q38.802 11.861 38.4395 12.5715Q38.077 13.282 37.8015 14.2245Q37.526 15.167 37.381 16.211Q37.265 17.052 37.236 17.864Q37.207 18.676 37.265 19.343Q37.323 20.01 37.4825 20.4595Q37.642 20.909 37.903 20.967ZM47.212 21.547Q46.98 21.866 46.632 21.895Q46.284 21.924 45.9795 21.8225Q45.675 21.721 45.472 21.547Q45.269 21.373 45.327 21.286Q45.385 21.141 45.4865 20.4015Q45.588 19.662 45.7185 18.56Q45.849 17.458 46.0085 16.095Q46.168 14.732 46.342 13.311Q46.516 11.89 46.7045 10.527Q46.893 9.164 47.1105 8.0765Q47.328 6.989 47.5455 6.2785Q47.763 5.568 47.995 5.452Q48.256 5.249 48.6765 5.2345Q49.097 5.22 49.4885 5.307Q49.88 5.394 50.112 5.539Q50.344 5.684 50.257 5.8Q50.083 6.003 49.8365 6.902Q49.59 7.801 49.329 9.048Q49.068 10.295 48.807 11.745Q48.546 13.195 48.314 14.5Q48.865 13.021 49.532 12.064Q49.677 11.861 49.8945 11.6145Q50.112 11.368 50.3875 11.136Q50.663 10.904 50.9965 10.7445Q51.33 10.585 51.707 10.585Q52.577 10.585 53.07 11.136Q53.563 11.687 53.795 12.5135Q54.027 13.34 54.0415 14.3115Q54.056 15.283 53.94 16.124Q53.766 17.313 53.4325 18.3425Q53.099 19.372 52.5625 20.126Q52.026 20.88 51.301 21.3005Q50.576 21.721 49.619 21.721Q49.039 21.721 48.43 21.4745Q47.821 21.228 47.328 20.793L47.212 21.547ZM47.734 17.922L47.357 20.445Q47.676 20.735 48.111 21.0105Q48.546 21.286 48.865 21.286Q49.329 21.286 49.764 20.8655Q50.199 20.445 50.5615 19.7345Q50.924 19.024 51.1995 18.0815Q51.475 17.139 51.62 16.095Q51.736 15.283 51.765 14.4565Q51.794 13.63 51.736 12.963Q51.678 12.296 51.5185 11.8465Q51.359 11.397 51.098 11.339Q50.692 11.252 50.257 11.658Q49.822 12.064 49.416 12.8325Q49.01 13.601 48.6185 14.616Q48.227 15.631 47.937 16.762L47.734 17.922ZM56.347 21.721C55.883 21.7403 55.535 21.4987 55.303 20.996Q54.955 20.242 54.8535 19.082Q54.752 17.922 54.8535 16.5445Q54.955 15.167 55.187 13.949Q55.419 12.731 55.709 11.832Q55.999 10.933 56.26 10.759Q56.521 10.585 56.927 10.585Q57.333 10.585 57.6955 10.672Q58.058 10.759 58.2755 10.9185Q58.493 11.078 58.406 11.194Q58.232 11.426 58.0145 11.9915Q57.797 12.557 57.5795 13.34Q57.362 14.123 57.1735 15.022Q56.985 15.921 56.869 16.762Q56.55 18.937 56.666 19.865Q56.782 20.793 57.13 20.735Q57.333 20.706 57.652 20.2855Q57.971 19.865 58.348 19.198Q58.725 18.531 59.1455 17.661Q59.566 16.791 60.001 15.863Q60.059 15.718 60.204 15.805Q60.349 15.892 60.291 15.979Q59.885 16.936 59.363 17.9655Q58.841 18.995 58.319 19.836Q57.826 20.648 57.333 21.1845Q56.84 21.721 56.347 21.721ZM56.695 8.294Q56.695 7.859 56.9705 7.5545Q57.246 7.25 57.681 7.25Q58.116 7.25 58.406 7.5545Q58.696 7.859 58.696 8.294Q58.696 8.729 58.406 9.0045Q58.116 9.28 57.681 9.28Q57.246 9.28 56.9705 9.0045Q56.695 8.729 56.695 8.294Z" />
    </g>
  </g>
</svg>